<?xml version="1.0" encoding="UTF-8"?>
<!DOCTYPE svg PUBLIC "-//W3C//DTD SVG 1.0//EN" "http://www.w3.org/TR/2001/REC-SVG-20010904/DTD/svg10.dtd">
<!-- Creator: CorelDRAW 2020 (64-Bit) -->
<svg xmlns="http://www.w3.org/2000/svg" xml:space="preserve" width="1080px" height="1080px" version="1.0" style="shape-rendering:geometricPrecision; text-rendering:geometricPrecision; image-rendering:optimizeQuality; fill-rule:evenodd; clip-rule:evenodd"
viewBox="0 0 1080 1080"
 xmlns:xlink="http://www.w3.org/1999/xlink"
 xmlns:xodm="http://www.corel.com/coreldraw/odm/2003">
 <defs>
  <style type="text/css">
   <![CDATA[
    .fil0 {fill:black;fill-rule:nonzero}
    .fil1 {fill:#FEA82F;fill-rule:nonzero}
   ]]>
  </style>
 </defs>
 <g id="Layer_x0020_1">
  <metadata id="CorelCorpID_0Corel-Layer"/>
  <g id="_1828431055936">
   <path class="fil0" d="M91.32 572.75c1.82,1.87 2.72,3.91 2.72,6.13 0,2.34 -0.96,4.32 -2.9,5.95 -1.82,1.52 -3.76,2.28 -5.82,2.28 -2.66,0 -4.78,-0.93 -6.36,-2.8l-35.79 -36.6 -10.91 9.45 0 21.72c0,2.34 -0.85,4.32 -2.54,5.95 -1.58,1.64 -3.58,2.46 -6,2.46 -2.54,0 -4.66,-0.82 -6.36,-2.46 -1.57,-1.63 -2.36,-3.61 -2.36,-5.95l0 -112.79c0,-2.33 0.79,-4.32 2.36,-5.95 1.7,-1.64 3.82,-2.45 6.36,-2.45 2.42,0 4.42,0.81 6,2.45 1.69,1.63 2.54,3.62 2.54,5.95l0 71.11 44.52 -39.41c2.06,-1.75 4.18,-2.62 6.36,-2.62 2.06,0 3.94,0.87 5.64,2.62 1.69,1.64 2.54,3.39 2.54,5.26 0,2.33 -1.15,4.43 -3.45,6.3l-31.44 26.97 34.89 36.43zm102.52 -34.85c-0.12,2.1 -1.03,3.91 -2.72,5.43 -1.7,1.4 -3.7,2.1 -6,2.1l-63.96 0c0.85,8.52 4.18,15.35 10,20.49 5.93,5.14 13.14,7.71 21.62,7.71 5.81,0 10.54,-0.82 14.17,-2.46 3.64,-1.63 6.85,-3.73 9.63,-6.3 1.82,-1.05 3.58,-1.58 5.27,-1.58 2.06,0 3.76,0.7 5.09,2.1 1.45,1.41 2.18,3.04 2.18,4.91 0,2.45 -1.21,4.67 -3.63,6.65 -3.52,3.39 -8.18,6.25 -14,8.59 -5.81,2.33 -11.75,3.5 -17.8,3.5 -9.82,0 -18.48,-1.99 -25.99,-5.96 -7.39,-3.97 -13.14,-9.51 -17.26,-16.63 -4,-7.13 -6,-15.18 -6,-24.17 0,-9.81 2.06,-18.39 6.18,-25.75 4.24,-7.47 9.75,-13.19 16.54,-17.16 6.9,-3.97 14.29,-5.96 22.17,-5.96 7.75,0 15.02,1.93 21.8,5.78 6.79,3.86 12.24,9.17 16.36,15.94 4.11,6.77 6.23,14.36 6.35,22.77zm-44.51 -29.07c-6.79,0 -12.66,1.86 -17.63,5.6 -4.97,3.62 -8.24,9.28 -9.81,16.99l53.6 0 0 -1.4c-0.6,-6.19 -3.51,-11.27 -8.72,-15.24 -5.09,-3.97 -10.9,-5.95 -17.44,-5.95zm148.15 29.07c-0.12,2.1 -1.03,3.91 -2.73,5.43 -1.69,1.4 -3.69,2.1 -5.99,2.1l-63.97 0c0.85,8.52 4.18,15.35 10,20.49 5.93,5.14 13.14,7.71 21.62,7.71 5.82,0 10.54,-0.82 14.17,-2.46 3.64,-1.63 6.85,-3.73 9.64,-6.3 1.81,-1.05 3.57,-1.58 5.26,-1.58 2.06,0 3.76,0.7 5.09,2.1 1.46,1.41 2.18,3.04 2.18,4.91 0,2.45 -1.21,4.67 -3.63,6.65 -3.51,3.39 -8.18,6.25 -13.99,8.59 -5.82,2.33 -11.75,3.5 -17.81,3.5 -9.81,0 -18.48,-1.99 -25.99,-5.96 -7.38,-3.97 -13.14,-9.51 -17.26,-16.63 -4,-7.13 -5.99,-15.18 -5.99,-24.17 0,-9.81 2.05,-18.39 6.17,-25.75 4.24,-7.47 9.76,-13.19 16.54,-17.16 6.9,-3.97 14.29,-5.96 22.17,-5.96 7.75,0 15.02,1.93 21.8,5.78 6.79,3.86 12.24,9.17 16.36,15.94 4.12,6.77 6.24,14.36 6.36,22.77zm-44.52 -29.07c-6.79,0 -12.66,1.86 -17.63,5.6 -4.96,3.62 -8.24,9.28 -9.81,16.99l53.61 0 0 -1.4c-0.61,-6.19 -3.52,-11.27 -8.73,-15.24 -5.09,-3.97 -10.9,-5.95 -17.44,-5.95zm112.35 -14.89c8.24,0 15.69,2.04 22.35,6.13 6.67,3.97 11.88,9.57 15.63,16.81 3.88,7.24 5.82,15.41 5.82,24.52 0,9.11 -1.94,17.28 -5.82,24.52 -3.75,7.12 -8.96,12.73 -15.63,16.81 -6.66,4.09 -13.99,6.13 -21.98,6.13 -6.3,0 -12.18,-1.34 -17.63,-4.03 -5.45,-2.68 -9.87,-5.95 -13.26,-9.8l0 38.88c0,2.33 -0.85,4.32 -2.55,5.95 -1.57,1.64 -3.63,2.45 -6.18,2.45 -2.42,0 -4.48,-0.81 -6.17,-2.45 -1.58,-1.52 -2.37,-3.5 -2.37,-5.95l0 -110.16c0,-2.45 0.79,-4.5 2.37,-6.13 1.57,-1.64 3.63,-2.45 6.17,-2.45 2.55,0 4.61,0.81 6.18,2.45 1.7,1.63 2.55,3.68 2.55,6.13l0 5.08c2.9,-4.09 7.14,-7.59 12.72,-10.51 5.57,-2.92 11.5,-4.38 17.8,-4.38zm-2 79.51c5.58,0 10.6,-1.4 15.09,-4.2 4.48,-2.8 7.93,-6.6 10.35,-11.39 2.55,-4.9 3.82,-10.39 3.82,-16.46 0,-6.07 -1.27,-11.5 -3.82,-16.29 -2.42,-4.9 -5.87,-8.75 -10.35,-11.56 -4.49,-2.8 -9.51,-4.2 -15.09,-4.2 -5.69,0 -10.78,1.4 -15.26,4.2 -4.48,2.69 -8,6.48 -10.54,11.39 -2.42,4.9 -3.63,10.39 -3.63,16.46 0,6.07 1.21,11.56 3.63,16.46 2.54,4.91 6.06,8.76 10.54,11.56 4.48,2.69 9.57,4.03 15.26,4.03zm462.03 -78.81c2.3,0 4.24,0.82 5.81,2.45 1.7,1.52 2.55,3.5 2.55,5.96 0,0.81 -0.25,1.92 -0.73,3.32l-27.8 75.66c-0.73,1.87 -1.94,3.27 -3.64,4.21 -1.69,0.93 -3.51,1.28 -5.45,1.05 -3.27,-0.24 -5.75,-1.99 -7.45,-5.26l-18.9 -47.63 -17.44 47.63c-0.73,1.64 -1.76,2.92 -3.09,3.86 -1.33,0.81 -2.79,1.28 -4.36,1.4 -1.82,0.23 -3.64,-0.12 -5.45,-1.05 -1.7,-1.05 -2.85,-2.46 -3.45,-4.21l-28.17 -75.66c-0.36,-1.05 -0.55,-2.16 -0.55,-3.32 0,-2.34 0.79,-4.32 2.37,-5.96 1.57,-1.63 3.63,-2.45 6.17,-2.45 4.12,0 6.79,1.75 8,5.25l21.62 59.02 17.27 -43.6c1.45,-3.51 4.12,-5.26 7.99,-5.26 3.64,0 6.12,1.75 7.45,5.26l17.63 42.9 21.26 -58.32c1.33,-3.5 4.12,-5.25 8.36,-5.25zm110.61 43.26c-0.12,2.1 -1.03,3.91 -2.72,5.43 -1.7,1.4 -3.7,2.1 -6,2.1l-63.96 0c0.85,8.52 4.18,15.35 9.99,20.49 5.94,5.14 13.15,7.71 21.63,7.71 5.81,0 10.53,-0.82 14.17,-2.46 3.63,-1.63 6.84,-3.73 9.63,-6.3 1.82,-1.05 3.57,-1.58 5.27,-1.58 2.06,0 3.75,0.7 5.09,2.1 1.45,1.41 2.18,3.04 2.18,4.91 0,2.45 -1.21,4.67 -3.64,6.65 -3.51,3.39 -8.17,6.25 -13.99,8.59 -5.81,2.33 -11.75,3.5 -17.81,3.5 -9.81,0 -18.47,-1.99 -25.98,-5.96 -7.39,-3.97 -13.14,-9.51 -17.26,-16.63 -4,-7.13 -6,-15.18 -6,-24.17 0,-9.81 2.06,-18.39 6.18,-25.75 4.24,-7.47 9.75,-13.19 16.53,-17.16 6.91,-3.97 14.3,-5.96 22.17,-5.96 7.76,0 15.02,1.93 21.81,5.78 6.78,3.86 12.23,9.17 16.35,15.94 4.12,6.77 6.24,14.36 6.36,22.77zm-44.52 -29.07c-6.78,0 -12.66,1.86 -17.62,5.6 -4.97,3.62 -8.24,9.28 -9.81,16.99l53.6 0 0 -1.4c-0.61,-6.19 -3.51,-11.27 -8.72,-15.24 -5.09,-3.97 -10.91,-5.95 -17.45,-5.95zm83.28 70.05c0,2.34 -0.84,4.32 -2.54,5.95 -1.7,1.64 -3.76,2.46 -6.18,2.46 -2.42,0 -4.48,-0.82 -6.18,-2.46 -1.57,-1.63 -2.36,-3.61 -2.36,-5.95l0 -112.79c0,-2.33 0.85,-4.32 2.55,-5.95 1.69,-1.64 3.75,-2.45 6.17,-2.45 2.43,0 4.43,0.81 6,2.45 1.7,1.63 2.54,3.62 2.54,5.95l0 112.79zm45.96 0c0,2.34 -0.84,4.32 -2.54,5.95 -1.7,1.64 -3.75,2.46 -6.18,2.46 -2.42,0 -4.48,-0.82 -6.18,-2.46 -1.57,-1.63 -2.36,-3.61 -2.36,-5.95l0 -112.79c0,-2.33 0.85,-4.32 2.55,-5.95 1.69,-1.64 3.75,-2.45 6.17,-2.45 2.43,0 4.43,0.81 6,2.45 1.7,1.63 2.54,3.62 2.54,5.95l0 112.79zm33.43 8.23c-2.91,0 -5.15,-0.76 -6.73,-2.28 -1.45,-1.51 -2.18,-3.73 -2.18,-6.65l0 -3.33c0,-2.8 0.73,-4.96 2.18,-6.48 1.58,-1.52 3.82,-2.27 6.73,-2.27l1.81 0c3.03,0 5.27,0.75 6.73,2.27 1.57,1.52 2.36,3.68 2.36,6.48l0 3.33c0,5.95 -3.03,8.93 -9.09,8.93l-1.81 0z"/>
   <path class="fil1" d="M512.73 537.9c-0.12,2.1 -1.03,3.91 -2.73,5.43 -1.69,1.4 -3.69,2.1 -5.99,2.1l-63.97 0c0.85,8.52 4.18,15.35 10,20.49 5.93,5.14 13.14,7.71 21.62,7.71 5.82,0 10.54,-0.82 14.18,-2.46 3.63,-1.63 6.84,-3.73 9.63,-6.3 1.81,-1.05 3.57,-1.58 5.27,-1.58 2.06,0 3.75,0.7 5.08,2.1 1.46,1.41 2.18,3.04 2.18,4.91 0,2.45 -1.21,4.67 -3.63,6.65 -3.51,3.39 -8.18,6.25 -13.99,8.59 -5.82,2.33 -11.75,3.5 -17.81,3.5 -9.81,0 -18.47,-1.99 -25.98,-5.96 -7.39,-3.97 -13.15,-9.51 -17.27,-16.63 -3.99,-7.13 -5.99,-15.18 -5.99,-24.17 0,-9.81 2.06,-18.39 6.17,-25.75 4.24,-7.47 9.76,-13.19 16.54,-17.16 6.91,-3.97 14.29,-5.96 22.17,-5.96 7.75,0 15.02,1.93 21.8,5.78 6.79,3.86 12.24,9.17 16.36,15.94 4.12,6.77 6.24,14.36 6.36,22.77zm-44.52 -29.07c-6.79,0 -12.66,1.86 -17.63,5.6 -4.96,3.62 -8.23,9.28 -9.81,16.99l53.61 0 0 -1.4c-0.61,-6.19 -3.52,-11.27 -8.73,-15.24 -5.08,-3.97 -10.9,-5.95 -17.44,-5.95zm142.5 -14.54c2.54,0 4.6,0.82 6.18,2.45 1.69,1.52 2.54,3.56 2.54,6.13l0 76.01c0,2.34 -0.85,4.32 -2.54,5.95 -1.58,1.64 -3.64,2.46 -6.18,2.46 -2.54,0 -4.6,-0.76 -6.18,-2.28 -1.57,-1.64 -2.36,-3.68 -2.36,-6.13l0 -4.55c-3.15,4.08 -7.45,7.59 -12.9,10.5 -5.45,2.81 -11.33,4.21 -17.63,4.21 -8.24,0 -15.75,-2.05 -22.53,-6.13 -6.66,-4.09 -11.93,-9.75 -15.81,-16.99 -3.75,-7.36 -5.63,-15.59 -5.63,-24.69 0,-9.11 1.88,-17.28 5.63,-24.52 3.88,-7.36 9.15,-13.08 15.81,-17.17 6.66,-4.08 13.99,-6.13 21.99,-6.13 6.42,0 12.35,1.29 17.8,3.86 5.58,2.57 10,5.83 13.27,9.8l0 -4.2c0,-2.45 0.79,-4.49 2.36,-6.13 1.58,-1.63 3.64,-2.45 6.18,-2.45zm-37.07 79.34c5.69,0 10.72,-1.4 15.08,-4.21 4.49,-2.8 7.94,-6.65 10.36,-11.56 2.55,-4.9 3.82,-10.45 3.82,-16.63 0,-6.08 -1.27,-11.56 -3.82,-16.47 -2.42,-4.9 -5.87,-8.75 -10.36,-11.56 -4.36,-2.91 -9.39,-4.37 -15.08,-4.37 -5.69,0 -10.78,1.4 -15.26,4.2 -4.36,2.8 -7.82,6.65 -10.36,11.56 -2.42,4.9 -3.63,10.45 -3.63,16.64 0,6.18 1.21,11.73 3.63,16.63 2.54,4.91 6,8.76 10.36,11.56 4.48,2.81 9.57,4.21 15.26,4.21zm97.26 -61.83l0 52.19c0,5.84 2.73,8.76 8.18,8.76 0.85,0 2,-0.18 3.45,-0.52 1.46,-0.47 2.61,-0.71 3.46,-0.71 1.57,0 2.9,0.65 3.99,1.93 1.09,1.29 1.64,2.92 1.64,4.91 0,2.45 -1.45,4.55 -4.36,6.3 -2.91,1.75 -6.18,2.63 -9.82,2.63 -3.99,0 -7.69,-0.41 -11.08,-1.23 -3.27,-0.82 -6.24,-2.86 -8.9,-6.13 -2.55,-3.39 -3.82,-8.46 -3.82,-15.24l0 -52.89 -10.54 0c-2.3,0 -4.24,-0.7 -5.81,-2.1 -1.46,-1.52 -2.18,-3.38 -2.18,-5.6 0,-2.22 0.72,-4.03 2.18,-5.43 1.57,-1.4 3.51,-2.1 5.81,-2.1l10.54 0 0 -14.71c0,-2.34 0.79,-4.32 2.36,-5.96 1.7,-1.63 3.82,-2.45 6.36,-2.45 2.43,0 4.42,0.82 6,2.45 1.7,1.64 2.54,3.62 2.54,5.96l0 14.71 15.09 0c2.3,0 4.18,0.76 5.63,2.27 1.57,1.4 2.36,3.21 2.36,5.43 0,2.22 -0.79,4.03 -2.36,5.43 -1.45,1.4 -3.33,2.1 -5.63,2.1l-15.09 0z"/>
  </g>
 </g>
</svg>
